# Blender v2.79 (sub 0) OBJ File: ''
# www.blender.org
mtllib WiderRoom.mtl
o Cube.001
v 10.050005 9.166770 -8.249994
v 10.049994 9.166768 8.250006
v -10.050004 9.166768 8.250000
v -10.049999 9.166770 -8.249998
v 10.050000 -0.000001 8.250000
v -10.050000 -0.000001 8.249999
v -10.050000 -0.000001 3.407499
v -10.050004 4.898327 3.407500
v -10.050000 0.000001 -3.406179
v 10.050000 -0.000001 3.375000
v 10.050000 0.000001 -3.375000
v 10.050000 0.000001 -8.250000
v -10.049999 0.000001 -8.250000
v -10.085969 0.000001 -3.214461
v -10.084467 -0.000001 3.217571
v -10.050000 4.898328 -3.406178
v -10.084500 4.756014 -3.214460
v -10.084500 4.755451 3.218808
v -10.399351 0.000000 -2.955572
v -10.399351 4.492007 -2.955571
v -10.399351 5.694671 -3.251963
v -10.399351 0.000001 -3.251964
v -16.836750 0.000000 -2.948700
v -16.836750 0.000001 -3.244405
v -16.836689 -0.000000 2.963128
v -10.399351 -0.000000 2.963447
v -10.269105 4.527196 2.999006
v -10.269159 4.527867 -2.989244
v -10.167230 4.622792 -3.075511
v -10.166736 4.622058 3.082623
v -10.268356 -0.000000 2.995545
v -10.154923 -0.000001 3.080253
v -10.268390 0.000000 -2.989244
v -10.155198 0.000001 -3.075512
v -10.399354 4.491418 2.968018
v -16.836750 4.490000 -2.948699
v -16.836750 5.692664 -3.244404
v -16.836750 8.977995 -3.244404
v -16.836750 8.977995 -2.948699
v -16.836689 -0.000001 3.258606
v -16.836714 4.489999 3.268661
v -10.399354 4.491418 3.263985
v -10.399351 -0.000001 3.258957
v -16.836750 0.000001 -6.497158
v -16.836750 5.692664 -6.497157
v -16.836714 4.489999 2.972269
v -16.836714 8.977993 2.972270
v -10.399351 8.984015 -2.955570
v -10.399351 8.984015 -3.251963
v -10.399354 8.982248 2.968019
v -16.836714 8.977993 3.268661
v -10.399354 8.982248 3.263985
v -10.399351 5.694671 -6.512275
v -10.399351 0.000001 -6.512276
v 14.162152 -0.500001 3.375001
v 14.162145 4.816176 3.375005
v 19.497877 4.816177 3.375009
v 19.497885 -0.500001 3.375005
v 10.050005 4.816176 -3.374996
v 10.049994 4.816175 3.375004
v 19.497885 -0.499999 -3.374995
v 19.497889 4.816178 -3.374991
v 14.162157 4.816177 -3.374995
v 14.162155 9.816178 -3.374994
v 14.162144 9.816176 3.375006
v 19.497885 -5.000000 3.375004
v 14.162152 -5.000000 3.375000
v 14.162152 -0.499999 -3.374999
v 14.162152 -5.000000 -3.375000
v 19.497885 -4.999999 -3.374996
v 19.497875 9.816176 3.375010
v 19.497887 9.816178 -3.374990
v 50.250015 27.500311 -8.249991
v 50.249992 -18.333540 -8.250003
v -50.250008 -18.333540 -8.250003
v -50.250008 27.500311 -8.249995
vt 0.270807 0.993665
vt 0.270807 0.630054
vt 0.747895 0.630054
vt 0.747895 0.993665
vt 0.270826 0.369993
vt 0.747895 0.370597
vt 0.994046 0.370597
vt 0.747895 0.279077
vt 0.861157 0.279077
vt 0.747895 0.095555
vt 0.270826 0.279090
vt 0.270734 0.095400
vt 0.270734 0.004497
vt 0.747895 0.005492
vt 0.755116 0.273553
vt 0.853698 0.273323
vt 0.870166 0.275561
vt 0.751778 0.275561
vt 0.994046 0.005492
vt 0.861157 0.095555
vt 0.863206 0.104725
vt 0.754733 0.104970
vt 0.754727 0.102521
vt 0.866447 0.102270
vt 0.172596 0.566465
vt 0.169982 0.491168
vt 0.169905 0.488945
vt 0.172595 0.566428
vt 0.866769 0.261559
vt 0.866790 0.122555
vt 0.872348 0.118413
vt 0.872348 0.265635
vt 0.225403 0.565616
vt 0.223814 0.516330
vt 0.226468 0.496662
vt 0.228064 0.565597
vt 0.226388 0.604393
vt 0.228972 0.604308
vt 0.173410 0.605932
vt 0.172278 0.567178
vt 0.857468 0.256809
vt 0.857494 0.127421
vt 0.861471 0.125557
vt 0.861445 0.258616
vt 0.172577 0.566714
vt 0.169929 0.493184
vt 0.170034 0.493183
vt 0.172581 0.566564
vt 0.858006 0.108434
vt 0.754734 0.108629
vt 0.754737 0.106826
vt 0.860172 0.106628
vt 0.758541 0.270285
vt 0.847077 0.270023
vt 0.848826 0.271602
vt 0.757255 0.271865
vt 0.855121 0.256140
vt 0.855146 0.128149
vt 0.759039 0.268747
vt 0.846515 0.268486
vt 0.169595 0.515691
vt 0.857182 0.110224
vt 0.754727 0.110417
vt 0.034537 0.514850
vt 0.032002 0.494943
vt 0.032500 0.440631
vt 0.035216 0.440656
vt 0.090888 0.566910
vt 0.091628 0.515366
vt 0.166878 0.515726
vt 0.166143 0.567303
vt 0.031158 0.566377
vt 0.001284 0.566109
vt 0.002128 0.472000
vt 0.088170 0.566886
vt 0.088911 0.515342
vt 0.170767 0.606014
vt 0.169562 0.567352
vt 0.033874 0.566401
vt 0.089596 0.441154
vt 0.224659 0.441996
vt 0.227462 0.441867
vt 0.170296 0.441509
vt 0.092323 0.441180
vt 0.167578 0.441484
vt 0.255581 0.473465
vt 0.257224 0.564996
vt 0.258018 0.603608
vt 0.087851 0.884890
vt 0.087851 0.764281
vt 0.133020 0.764281
vt 0.133020 0.884890
vt 0.004731 0.369993
vt 0.004639 0.004497
vt 0.149274 0.095400
vt 0.149361 0.279090
vt 0.218097 0.884890
vt 0.218097 0.764281
vt 0.002774 0.764281
vt 0.002774 0.650845
vt 0.087851 0.650845
vt 0.133020 0.986982
vt 0.087851 0.986982
vt 0.263266 0.764281
vt 0.263266 0.884890
vt 0.832719 0.894636
vt 0.832719 0.970512
vt 0.772285 0.978389
vt 0.772285 0.894636
vt 0.773182 0.699333
vt 0.833951 0.699333
vt 0.833951 0.739139
vt 0.773182 0.739139
vt 0.832719 0.835557
vt 0.772285 0.835557
vt 0.832719 0.759681
vt 0.772285 0.751803
vt 0.002774 0.884890
vt 0.002774 0.986982
vt 0.218097 0.986982
vt 0.263266 0.986982
vt 0.133020 0.650845
vt 0.218097 0.650845
vt 0.263266 0.650845
vt 0.216210 0.202444
vt 0.216210 0.174692
vt 0.261622 0.119187
vt 0.261622 0.257948
vt 0.193504 0.202444
vt 0.148092 0.257948
vt 0.193504 0.174692
vt 0.148092 0.119188
vn 0.0000 -1.0000 -0.0000
vn 0.0000 0.0000 -1.0000
vn 1.0000 0.0000 0.0000
vn 0.0000 1.0000 0.0000
vn 0.9835 -0.0001 0.1807
vn 0.9838 0.0000 -0.1792
vn 0.9720 -0.2351 -0.0000
vn -1.0000 -0.0000 0.0000
vn 0.6806 -0.7327 -0.0001
vn 0.6147 0.0013 -0.7888
vn 0.6254 0.0009 0.7803
vn 0.8504 -0.5262 -0.0001
vn 0.8729 0.0013 -0.4879
vn 0.8772 0.0010 0.4801
vn 0.2652 -0.9642 -0.0001
vn 0.2346 0.0009 -0.9721
vn 0.2497 0.0000 0.9683
vn -0.0003 0.0017 -1.0000
vn -0.0005 0.0008 -1.0000
vn -0.0007 0.0000 -1.0000
vn -0.0000 -0.0000 1.0000
vn 0.1207 0.9927 0.0000
usemtl Material.001
s 1
f 1/1/1 2/2/1 3/3/1 4/4/1
f 5/5/2 6/6/2 3/3/2 2/2/2
f 3/7/3 6/6/3 7/8/3 8/9/3
f 9/10/4 7/8/4 10/11/4 11/12/4
f 12/13/4 13/14/4 9/10/4 11/12/4
f 14/15/4 15/16/4 7/17/4 9/18/4
f 6/6/4 5/5/4 10/11/4 7/8/4
f 4/19/3 3/7/3 8/9/3 16/20/3
f 4/19/3 16/20/3 9/10/3 13/14/3
f 17/21/5 14/22/5 9/23/5 16/24/5
f 15/25/6 18/26/6 8/27/6 7/28/6
f 18/29/7 17/30/7 16/31/7 8/32/7
f 19/33/8 20/34/8 21/35/8 22/36/8
f 23/37/4 19/33/4 22/36/4 24/38/4
f 23/37/4 25/39/4 26/40/4 19/33/4
f 27/41/9 28/42/9 29/43/9 30/44/9
f 31/45/10 27/46/10 30/47/10 32/48/10
f 28/49/11 33/50/11 34/51/11 29/52/11
f 33/53/4 31/54/4 32/55/4 34/56/4
f 30/44/12 29/43/12 17/30/12 18/29/12
f 32/48/13 30/47/13 18/26/13 15/25/13
f 29/52/14 34/51/14 14/22/14 17/21/14
f 34/56/4 32/55/4 15/16/4 14/15/4
f 35/57/15 20/58/15 28/42/15 27/41/15
f 19/59/4 26/60/4 31/54/4 33/53/4
f 26/40/16 35/61/16 27/46/16 31/45/16
f 20/62/17 19/63/17 33/50/17 28/49/17
f 36/64/3 37/65/3 38/66/3 39/67/3
f 40/68/18 41/69/19 42/70/19 43/71/18
f 37/65/3 24/72/3 44/73/3 45/74/3
f 25/75/3 46/76/3 41/69/3 40/68/3
f 26/40/4 25/39/4 40/77/4 43/78/4
f 35/61/8 26/40/8 43/78/8 42/70/8
f 36/64/3 23/79/3 24/72/3 37/65/3
f 46/76/3 36/64/3 39/67/3 47/80/3
f 21/35/8 20/34/8 48/81/8 49/82/8
f 20/34/8 35/61/8 50/83/8 48/81/8
f 42/70/19 41/69/19 51/84/20 52/85/20
f 41/69/3 46/76/3 47/80/3 51/84/3
f 35/61/8 42/70/8 52/85/8 50/83/8
f 22/36/8 21/35/8 53/86/8 54/87/8
f 24/38/4 22/36/4 54/87/4 44/88/4
f 55/89/2 56/90/2 57/91/2 58/92/2
f 2/93/8 1/94/8 59/95/8 60/96/8
f 5/5/8 2/93/8 60/96/8 10/11/8
f 1/94/8 12/13/8 11/12/8 59/95/8
f 61/97/8 58/92/8 57/91/8 62/98/8
f 56/90/3 63/99/3 64/100/3 65/101/3
f 55/89/2 58/92/2 66/102/2 67/103/2
f 63/104/21 68/105/21 61/97/21 62/98/21
f 59/106/21 11/107/21 68/108/21 63/109/21
f 11/110/22 10/111/22 55/112/22 68/113/22
f 60/114/1 59/106/1 63/109/1 56/115/1
f 10/116/2 60/114/2 56/115/2 55/117/2
f 68/118/3 55/89/3 67/103/3 69/119/3
f 58/92/8 61/97/8 70/120/8 66/102/8
f 61/97/21 68/105/21 69/121/21 70/120/21
f 62/98/8 57/91/8 71/122/8 72/123/8
f 63/104/21 62/98/21 72/123/21 64/124/21
f 57/91/2 56/90/2 65/101/2 71/122/2
f 12/125/2 1/126/2 73/127/2 74/128/2
f 13/129/2 12/125/2 74/128/2 75/130/2
f 1/126/2 4/131/2 76/132/2 73/127/2
f 4/131/2 13/129/2 75/130/2 76/132/2
f 36/64/3 46/76/3 25/75/3 23/79/3
l 37 21
